<?xml version="1.0" standalone="no"?>
<!DOCTYPE svg PUBLIC "-//W3C//DTD SVG 20010904//EN"
 "http://www.w3.org/TR/2001/REC-SVG-20010904/DTD/svg10.dtd">
<svg version="1.0" xmlns="http://www.w3.org/2000/svg"
 width="400.000000pt" height="400.000000pt" viewBox="0 0 400.000000 400.000000"
 preserveAspectRatio="xMidYMid meet">
<metadata>
Created by potrace 1.11, written by Peter Selinger 2001-2013
</metadata>
<g transform="translate(0.000000,400.000000) scale(0.100000,-0.100000)"
fill="#000000" stroke="none">
<path d="M0 2000 l0 -2000 2000 0 2000 0 0 2000 0 2000 -2000 0 -2000 0 0
-2000z m1955 543 c117 -38 228 -118 365 -260 58 -60 138 -152 179 -205 l75
-97 52 57 c28 31 78 73 110 92 48 29 67 35 113 34 111 0 195 -70 381 -319 157
-210 222 -265 362 -311 l73 -23 -1635 0 c-1627 0 -1635 0 -1562 19 189 50 309
150 517 435 134 184 213 282 285 355 219 222 455 299 685 223z"/>
</g>
</svg>
